<?xml version="1.0" standalone="no"?>
<!DOCTYPE svg PUBLIC "-//W3C//DTD SVG 20010904//EN"
 "http://www.w3.org/TR/2001/REC-SVG-20010904/DTD/svg10.dtd">
<svg version="1.0" xmlns="http://www.w3.org/2000/svg"
 width="1200.000000pt" height="1200.000000pt" viewBox="0 0 1200.000000 1200.000000"
 preserveAspectRatio="xMidYMid meet">
<metadata>
Created by potrace 1.14, written by Peter Selinger 2001-2017
</metadata>
<g transform="translate(0.000000,1200.000000) scale(0.100000,-0.100000)"
fill="#000000" stroke="none">
<path d="M5699 11986 c-2 -2 -53 -7 -114 -11 -60 -3 -123 -8 -140 -9 -62 -6
-190 -20 -195 -21 -5 -1 -77 -11 -145 -20 -16 -2 -46 -6 -65 -10 -230 -39
-363 -67 -500 -102 -52 -13 -113 -29 -135 -34 -120 -30 -380 -115 -565 -186
-669 -256 -1309 -647 -1845 -1126 -234 -209 -537 -532 -727 -777 -164 -211
-378 -530 -495 -740 -69 -122 -242 -472 -287 -580 -27 -63 -54 -128 -61 -145
-32 -73 -147 -401 -160 -455 -2 -8 -13 -44 -24 -80 -28 -91 -96 -365 -121
-490 -21 -105 -25 -131 -35 -192 -3 -18 -7 -44 -10 -58 -7 -37 -13 -79 -20
-130 -3 -25 -8 -61 -10 -80 -3 -19 -7 -62 -10 -95 -3 -33 -8 -73 -10 -90 -20
-133 -27 -720 -12 -952 7 -108 23 -276 31 -331 2 -15 7 -49 11 -77 3 -27 9
-66 11 -85 3 -19 7 -46 10 -60 2 -14 7 -43 9 -65 3 -22 8 -47 11 -56 2 -10 7
-30 9 -45 9 -61 83 -392 90 -404 2 -3 6 -18 8 -31 10 -55 135 -456 158 -504 5
-11 20 -50 34 -87 169 -458 457 -985 768 -1408 62 -84 222 -286 237 -300 3 -3
30 -34 60 -70 231 -274 623 -641 925 -865 44 -32 82 -62 85 -65 7 -9 377 -254
420 -278 19 -11 89 -51 155 -89 142 -82 430 -224 570 -282 55 -23 109 -46 120
-51 103 -48 525 -192 625 -215 8 -2 67 -17 130 -34 98 -26 250 -59 465 -101
84 -16 291 -44 405 -55 36 -4 81 -8 100 -10 252 -26 926 -26 1062 0 11 3 55 7
97 10 42 3 87 8 101 10 14 2 61 9 105 15 109 15 125 18 163 24 17 3 47 8 65
11 76 13 281 57 392 85 66 17 128 32 138 35 152 36 544 174 762 267 152 65
484 228 552 271 24 15 45 27 47 27 5 0 139 79 211 124 155 97 489 332 541 381
6 5 28 24 50 40 259 203 599 535 819 800 28 33 52 62 55 65 63 63 299 391 453
630 95 148 292 515 375 700 170 380 314 821 401 1230 22 105 63 345 77 450 2
19 6 49 8 65 3 17 8 66 11 110 4 44 9 89 11 99 24 128 23 816 -1 1046 -24 228
-33 297 -51 405 -8 50 -17 106 -20 125 -18 116 -99 465 -149 635 -59 205 -183
545 -256 703 -16 35 -29 65 -29 68 0 13 -195 394 -255 499 -347 607 -782 1133
-1315 1590 -704 605 -1560 1044 -2465 1264 -105 26 -301 67 -360 77 -11 2 -49
8 -85 14 -36 6 -80 13 -99 15 -32 4 -61 8 -141 20 -40 6 -91 11 -205 21 -44 3
-96 8 -115 11 -42 5 -706 13 -711 9z m716 -370 c22 -2 69 -7 105 -11 186 -17
400 -49 615 -90 57 -11 440 -107 450 -113 6 -4 15 -7 20 -8 65 -11 419 -140
615 -224 399 -171 875 -450 1192 -700 35 -27 68 -53 73 -57 17 -13 119 -97
131 -108 7 -5 38 -32 70 -60 452 -387 891 -924 1198 -1465 258 -454 459 -962
575 -1450 33 -140 76 -349 87 -425 3 -27 8 -59 10 -70 3 -17 23 -182 39 -325
19 -165 25 -619 12 -850 -7 -129 -10 -159 -29 -320 -15 -134 -15 -135 -22
-167 -3 -15 -8 -48 -11 -73 -17 -130 -69 -373 -120 -563 -200 -743 -554 -1442
-1033 -2042 -95 -118 -113 -140 -202 -240 -100 -112 -339 -354 -410 -415 -14
-12 -41 -36 -60 -53 -70 -63 -216 -184 -275 -228 -33 -24 -64 -49 -70 -55 -17
-18 -172 -126 -325 -227 -477 -311 -1003 -548 -1555 -701 -88 -24 -176 -48
-195 -52 -19 -4 -39 -9 -45 -10 -70 -17 -287 -58 -385 -73 -173 -27 -186 -29
-265 -37 -38 -3 -83 -8 -100 -10 -190 -20 -709 -26 -900 -10 -184 15 -330 30
-395 41 -14 2 -43 7 -65 10 -54 8 -90 14 -155 26 -30 6 -66 12 -80 14 -43 7
-251 53 -335 75 -1208 316 -2272 1019 -3041 2010 -462 596 -810 1305 -994
2025 -37 144 -93 406 -105 490 -3 23 -7 50 -9 60 -2 11 -9 63 -16 115 -7 52
-14 102 -15 111 -2 9 -6 56 -10 105 -4 49 -9 107 -12 129 -9 75 -10 680 -2
775 4 52 11 127 14 165 3 39 7 82 9 95 3 14 7 52 11 85 4 32 8 66 10 75 1 8 6
38 9 65 4 28 14 88 22 135 9 47 18 96 20 110 11 63 77 338 105 435 241 837
660 1594 1237 2235 136 151 371 381 501 490 30 25 59 50 65 55 9 9 103 85 156
128 123 100 379 274 572 391 297 178 763 398 1013 476 22 7 49 17 60 21 18 7
63 22 265 84 220 67 661 154 920 180 36 4 72 8 81 10 8 2 69 6 135 10 65 3
120 8 122 10 5 5 669 -3 717 -9z"/>
<path d="M7728 7474 c-2 -1 -75 -5 -163 -8 -88 -4 -178 -9 -200 -11 -22 -2
-76 -6 -120 -9 -44 -4 -100 -8 -125 -11 -104 -11 -146 -16 -165 -19 -11 -3
-27 -5 -36 -5 -10 -1 -36 -42 -70 -108 -447 -891 -1070 -1408 -1804 -1500 -78
-10 -303 -10 -380 0 -338 42 -696 176 -1155 432 -85 48 -184 103 -220 122 -36
20 -114 64 -175 98 -60 34 -136 77 -168 94 l-57 33 57 44 c31 24 62 44 68 44
9 0 91 -34 260 -109 61 -27 139 -61 415 -181 168 -72 359 -156 426 -185 l121
-52 72 58 c40 31 71 61 69 66 -1 4 -403 191 -893 416 -489 224 -903 414 -920
421 -134 63 -558 256 -561 256 -2 0 -58 -43 -123 -95 -66 -52 -126 -95 -133
-95 -8 0 -32 8 -54 19 -76 36 -653 281 -662 281 -6 0 -9 -30 -7 -72 2 -40 3
-101 4 -136 l1 -63 48 -21 c26 -12 49 -22 52 -23 22 -7 128 -56 288 -131 63
-30 115 -54 118 -54 7 0 475 -234 579 -290 140 -75 491 -276 543 -311 24 -16
45 -29 47 -29 4 0 140 -84 220 -135 28 -18 140 -90 250 -161 110 -70 389 -254
620 -409 533 -356 718 -471 1100 -688 518 -293 1154 -595 1685 -799 58 -22
119 -46 135 -53 17 -7 75 -29 130 -48 55 -20 157 -56 227 -80 271 -97 894
-281 1086 -322 10 -2 64 -15 122 -29 58 -13 117 -27 133 -30 15 -2 35 -7 45
-10 9 -3 28 -7 42 -10 14 -2 59 -11 100 -19 167 -34 138 -42 259 76 58 58 143
141 189 185 45 43 82 81 82 84 0 2 -46 5 -102 5 -101 0 -304 10 -363 17 -16 2
-59 7 -95 10 -331 32 -803 153 -1164 300 -140 57 -421 193 -493 239 -24 15
-45 27 -47 27 -20 0 -321 205 -441 299 -138 109 -375 327 -375 345 0 16 349
204 522 282 57 25 117 51 133 59 83 37 423 150 511 170 10 2 55 13 99 24 44
11 121 27 170 36 50 10 97 19 107 20 9 2 38 6 65 10 26 4 58 8 71 10 13 2 53
7 90 10 37 4 77 8 88 10 158 25 845 25 1144 0 20 -1 76 -5 125 -9 50 -4 128
-11 175 -17 159 -19 136 -27 270 100 66 63 119 116 117 118 -4 3 -112 18 -212
29 -27 3 -63 7 -80 9 -16 2 -59 7 -95 10 -36 3 -78 8 -95 10 -16 2 -73 7 -125
11 -52 3 -111 8 -130 9 -252 25 -1210 25 -1450 1 -19 -2 -73 -7 -120 -11 l-85
-6 40 42 c48 51 67 71 123 133 50 55 36 52 297 61 282 10 749 5 1019 -10 163
-9 353 -23 421 -30 22 -3 72 -7 110 -10 68 -6 112 -10 185 -20 19 -2 60 -7 90
-10 30 -4 66 -8 80 -11 14 -2 63 -9 109 -14 47 -6 88 -13 93 -16 5 -3 43 27
84 68 42 40 98 94 126 121 27 26 47 47 44 47 -3 0 -61 9 -128 19 -68 11 -145
22 -173 26 -27 3 -61 7 -75 10 -14 2 -46 7 -72 10 -26 3 -62 7 -80 9 -18 3
-58 8 -88 11 -30 3 -68 7 -85 9 -16 2 -64 7 -105 10 -41 4 -95 9 -120 11 -60
6 -154 13 -270 21 -52 3 -122 8 -155 10 -33 3 -279 7 -548 9 -268 3 -487 7
-487 10 0 3 32 48 72 101 l73 95 380 -5 c209 -4 409 -8 445 -10 36 -2 124 -7
195 -11 72 -3 148 -8 170 -10 22 -2 72 -7 110 -10 76 -5 163 -14 210 -20 17
-2 62 -6 100 -10 39 -3 83 -9 100 -12 16 -3 46 -7 65 -9 45 -4 110 -13 185
-24 33 -5 80 -12 105 -15 25 -3 83 -13 130 -21 156 -28 195 -34 210 -34 14 0
262 229 250 231 -3 0 -12 2 -20 4 -30 7 -383 65 -428 70 -26 3 -69 10 -97 15
-27 5 -77 12 -110 15 -32 4 -62 8 -65 10 -3 2 -39 6 -80 10 -41 4 -77 8 -80
10 -3 2 -46 6 -94 10 -49 3 -92 7 -95 9 -3 2 -44 7 -91 10 -47 4 -103 9 -125
11 -108 11 -202 17 -415 30 -171 10 -407 17 -587 19 -106 1 -195 5 -198 8 -3
3 0 12 8 19 7 8 16 21 20 29 4 8 18 33 32 55 14 22 31 51 37 64 l13 24 305 -7
c168 -4 325 -8 350 -10 25 -2 92 -6 150 -10 99 -6 137 -9 263 -21 28 -2 88 -7
132 -10 44 -3 96 -8 115 -10 45 -6 110 -13 185 -20 33 -3 67 -8 75 -10 8 -2
46 -7 84 -10 38 -4 85 -8 105 -11 68 -8 116 -15 141 -19 14 -2 49 -7 79 -10
30 -4 63 -9 75 -11 12 -3 37 -6 56 -9 43 -5 311 -51 345 -59 63 -16 109 -17
120 -5 6 8 61 62 121 122 l111 107 -36 9 c-20 5 -70 14 -111 21 -41 6 -95 16
-120 21 -25 5 -88 16 -140 24 -52 8 -106 16 -120 19 -14 3 -61 10 -105 16 -78
11 -106 15 -162 24 -16 3 -55 8 -88 12 -33 3 -62 8 -65 9 -3 2 -34 6 -70 9
-36 4 -76 9 -90 11 -28 5 -74 11 -168 20 -35 4 -72 8 -83 10 -10 2 -55 7 -98
10 -44 3 -88 7 -98 9 -10 2 -63 7 -118 11 -55 3 -111 8 -125 10 -14 2 -70 6
-125 10 -55 3 -134 8 -175 11 -196 12 -348 16 -752 18 -241 2 -439 2 -440 0z"/>
</g>
</svg>
