<svg id="burger" xmlns="http://www.w3.org/2000/svg" fill="currentColor" class="cf-icon-svg" stroke="currentColor" stroke-width="0.38" viewBox="0.57 3.62 12.87 11.13">

<g id="SVGRepo_bgCarrier" stroke-width="0"/>

<g id="SVGRepo_tracerCarrier" stroke-linecap="round" stroke-linejoin="round"/>

<g id="SVGRepo_iconCarrier">

<path d="M.789 4.836a1.03 1.03 0 0 1 1.03-1.029h10.363a1.03 1.03 0 1 1 0 2.059H1.818A1.03 1.03 0 0 1 .79 4.836zm12.422 4.347a1.03 1.03 0 0 1-1.03 1.029H1.819a1.03 1.03 0 0 1 0-2.059h10.364a1.03 1.03 0 0 1 1.029 1.03zm0 4.345a1.03 1.03 0 0 1-1.03 1.03H1.819a1.03 1.03 0 1 1 0-2.059h10.364a1.03 1.03 0 0 1 1.029 1.03z"/>

</g>

</svg>