<svg id="check" xmlns="http://www.w3.org/2000/svg" fill="currentColor" viewBox="2.23 2.23 19.58 19.58">
<path d="M17.68 21.81H6.36C5.26466 21.81 4.21418 21.3749 3.43965 20.6004C2.66513 19.8258 2.23 18.7753 2.23 17.68V6.36C2.23 5.26466 2.66513 4.21417 3.43965 3.43965C4.21418 2.66512 5.26466 2.23 6.36 2.23H17.68C18.7753 2.23 19.8258 2.66512 20.6004 3.43965C21.3749 4.21417 21.81 5.26466 21.81 6.36V17.68C21.81 18.7753 21.3749 19.8258 20.6004 20.6004C19.8258 21.3749 18.7753 21.81 17.68 21.81ZM6.36 3.73C5.66248 3.73 4.99353 4.00709 4.50031 4.50031C4.00709 4.99353 3.73 5.66248 3.73 6.36V17.68C3.73 18.3775 4.00709 19.0465 4.50031 19.5397C4.99353 20.0329 5.66248 20.31 6.36 20.31H17.68C18.3775 20.31 19.0465 20.0329 19.5397 19.5397C20.0329 19.0465 20.31 18.3775 20.31 17.68V6.36C20.31 5.66248 20.0329 4.99353 19.5397 4.50031C19.0465 4.00709 18.3775 3.73 17.68 3.73H6.36Z" fill="currentColor"/>
</svg>