<svg id="help" xmlns="http://www.w3.org/2000/svg" xmlns:xlink="http://www.w3.org/1999/xlink" version="1.1" xml:space="preserve" viewBox="1.41 12.64 252.9 230.43">

<defs>
</defs>
<g style="stroke: none; stroke-width: 0; stroke-dasharray: none; stroke-linecap: butt; stroke-linejoin: miter; stroke-miterlimit: 10; fill: currentColor; fill-rule: nonzero; opacity: 1;" transform="translate(1.4065934065934016 1.4065934065934016) scale(2.81 2.81)">
	<path d="M 86.181 3.998 H 3.819 C 1.71 3.998 0 5.708 0 7.817 v 55.461 c 0 2.109 1.71 3.819 3.819 3.819 h 10.129 v 18.904 L 33.21 67.098 h 52.97 c 2.109 0 3.819 -1.71 3.819 -3.819 V 7.817 C 90 5.708 88.29 3.998 86.181 3.998 z M 46.678 56.518 c 0 0.819 -0.664 1.484 -1.483 1.484 c -0.82 0 -1.484 -0.664 -1.484 -1.484 V 54.53 c 0 -0.819 0.664 -1.484 1.484 -1.484 c 0.819 0 1.483 0.664 1.483 1.484 V 56.518 z M 46.678 40.467 v 9.205 c 0 0.819 -0.664 1.484 -1.483 1.484 c -0.82 0 -1.484 -0.664 -1.484 -1.484 v -10.6 c 0 -0.82 0.664 -1.484 1.484 -1.484 c 5.21 0 9.448 -4.239 9.448 -9.448 c 0 -5.21 -4.238 -9.448 -9.448 -9.448 c -5.21 0 -9.448 4.239 -9.448 9.448 c 0 0.819 -0.664 1.483 -1.483 1.483 c -0.82 0 -1.484 -0.664 -1.484 -1.483 c 0 -6.846 5.569 -12.415 12.415 -12.415 c 6.846 0 12.415 5.569 12.415 12.415 C 57.609 34.484 52.827 39.732 46.678 40.467 z" style="stroke: none; stroke-width: 1; stroke-dasharray: none; stroke-linecap: butt; stroke-linejoin: miter; stroke-miterlimit: 10; fill: currentColor; fill-rule: nonzero; opacity: 1;" transform=" matrix(1 0 0 1 0 0) " stroke-linecap="round"/>
</g>
</svg>